<svg width="140" height="140" viewBox="0 0 140 140" fill="none" xmlns="http://www.w3.org/2000/svg">
<path fill-rule="evenodd" clip-rule="evenodd" d="M32.1313 128.461L11.186 128.461L11.186 69.6455L32.1313 69.6455C53.0447 69.6455 69.9984 52.6919 69.9984 31.7785L69.9984 10.8332L128.814 10.8332L128.814 31.7785C128.814 85.1747 85.5276 128.461 32.1313 128.461Z" fill="#D4D7DB"/>
<path d="M22.1857 58.8038C23.7478 57.2417 26.2805 57.2417 27.8426 58.8038C29.4047 60.3659 29.4047 62.8985 27.8426 64.4606C26.2805 66.0227 23.7478 66.0227 22.1857 64.4606C20.6236 62.8985 20.6236 60.3659 22.1857 58.8038Z" stroke="#F54E39" stroke-width="2"/>
<path d="M90.6857 45.961C92.2478 44.3989 94.7805 44.3989 96.3426 45.961C97.9047 47.5231 97.9047 50.0558 96.3426 51.6179C94.7805 53.18 92.2478 53.18 90.6857 51.6179C89.1236 50.0558 89.1236 47.5231 90.6857 45.961Z" stroke="#F54E39" stroke-width="2"/>
<path d="M76.0139 117.289C77.576 115.727 80.1086 115.727 81.6707 117.289C83.2328 118.851 83.2328 121.384 81.6707 122.946C80.1086 124.508 77.576 124.508 76.0139 122.946C74.4518 121.384 74.4518 118.851 76.0139 117.289Z" stroke="#F54E39" stroke-width="2"/>
<path d="M27.3692 58.7638L75.2244 10.7077C83.0451 2.85418 95.764 2.86782 103.568 10.7381V10.7381C111.314 18.5498 111.287 31.1534 103.508 38.9322L95.686 46.7545M55.4703 86.9708L91.4796 50.9609" stroke="#F54E39" stroke-width="2"/>
<path d="M89.4114 53.0295L41.3756 101.267C33.6311 109.044 33.6324 121.619 41.3786 129.394V129.394C49.1569 137.202 61.7956 137.214 69.5885 129.421L75.686 123.323M117.575 81.4332L81.5481 117.461" stroke="#F54E39" stroke-width="2"/>
<path d="M121.524 78.461C121.524 77.9087 121.076 77.461 120.524 77.461L111.524 77.4609C110.972 77.4609 110.524 77.9086 110.524 78.4609C110.524 79.0131 110.972 79.4609 111.524 79.4609L119.524 79.461L119.524 87.461C119.524 88.0133 119.972 88.461 120.524 88.461C121.076 88.461 121.524 88.0133 121.524 87.461L121.524 78.461ZM117.231 83.168L121.231 79.1681L119.817 77.7539L115.817 81.7538L117.231 83.168Z" fill="#F54E39"/>
</svg>
