<svg width="20" height="20" viewBox="0 0 20 20" fill="none" xmlns="http://www.w3.org/2000/svg">
<path fill-rule="evenodd" clip-rule="evenodd" d="M5.19238 8.01001L5.19238 7.28516L6.00894 7.28516L6.00894 8.01001C6.00894 9.24867 7.19709 10.2528 8.66275 10.2528L14.0184 10.2528L14.0184 10.9429L8.66275 10.9429C6.74612 10.9429 5.19238 9.6298 5.19238 8.01001Z" fill="#798493" stroke="#798493" stroke-width="0.5"/>
<path fill-rule="evenodd" clip-rule="evenodd" d="M14.708 10.3962C14.8408 10.5085 14.8407 10.6906 14.7078 10.8028L12.5419 12.6322C12.409 12.7444 12.1936 12.7443 12.0608 12.632C11.9279 12.5197 11.928 12.3376 12.0609 12.2254L13.9862 10.5993L12.0621 8.97224C11.9293 8.85992 11.9294 8.67786 12.0623 8.5656C12.1952 8.45334 12.4106 8.4534 12.5434 8.56573L14.708 10.3962Z" fill="#798493" stroke="#798493" stroke-width="0.5"/>
</svg>
